# xmcd CD database file
#
# Track frame offsets:
#	187
#	10725
#	20472
#	35695
#	59172
#	71347
#	88582
#	100735
#	115947
#	125932
#
# Disc length: 2005 seconds
#
# Revision: 1
# Processed by: cddbd v1.5.2PL0 Copyright (c) Steve Scherf et al.
# Submitted via: CDex 1.51
#
DISCID=8707d30a
DTITLE=J.J. Cale - Shades
DYEAR=1980
DGENRE=Blues
TTITLE0=Carry On
TTITLE1=Deep Dark Dungeon
TTITLE2=Wish I Had Not Said That
TTITLE3=Pack My Jack
TTITLE4=If You Leave Her
TTITLE5=Mama Don't
TTITLE6=Runaround
TTITLE7=What Do You Expect
TTITLE8=Love Has Been Gone
TTITLE9=Cloudy Day
EXTD=YEAR: 1980
EXTT0=
EXTT1=
EXTT2=
EXTT3=
EXTT4=
EXTT5=
EXTT6=
EXTT7=
EXTT8=
EXTT9=
PLAYORDER=
